<svg width="494" height="394" viewBox="0 0 494 394" fill="none" xmlns="http://www.w3.org/2000/svg">
<g clip-path="url(#clip0_144_1780)">
<path d="M25.5114 112.455H27.5284L31.5625 119.244H31.733L35.767 112.455H37.7841L32.5284 121.006V127H30.767V121.006L25.5114 112.455ZM42.7237 127.227C41.7389 127.227 40.8748 126.993 40.1314 126.524C39.3928 126.055 38.8151 125.4 38.3984 124.557C37.9865 123.714 37.7805 122.729 37.7805 121.602C37.7805 120.466 37.9865 119.474 38.3984 118.626C38.8151 117.779 39.3928 117.121 40.1314 116.652C40.8748 116.183 41.7389 115.949 42.7237 115.949C43.7086 115.949 44.5703 116.183 45.3089 116.652C46.0523 117.121 46.63 117.779 47.0419 118.626C47.4586 119.474 47.6669 120.466 47.6669 121.602C47.6669 122.729 47.4586 123.714 47.0419 124.557C46.63 125.4 46.0523 126.055 45.3089 126.524C44.5703 126.993 43.7086 127.227 42.7237 127.227ZM42.7237 125.722C43.4718 125.722 44.0874 125.53 44.5703 125.146C45.0533 124.763 45.4107 124.259 45.6428 123.634C45.8748 123.009 45.9908 122.331 45.9908 121.602C45.9908 120.873 45.8748 120.194 45.6428 119.564C45.4107 118.934 45.0533 118.425 44.5703 118.037C44.0874 117.649 43.4718 117.455 42.7237 117.455C41.9756 117.455 41.3601 117.649 40.8771 118.037C40.3942 118.425 40.0367 118.934 39.8047 119.564C39.5727 120.194 39.4567 120.873 39.4567 121.602C39.4567 122.331 39.5727 123.009 39.8047 123.634C40.0367 124.259 40.3942 124.763 40.8771 125.146C41.3601 125.53 41.9756 125.722 42.7237 125.722ZM57.1005 122.54V116.091H58.7766V127H57.1005V125.153H56.9869C56.7312 125.707 56.3335 126.179 55.7937 126.567C55.2539 126.95 54.5721 127.142 53.7482 127.142C53.0664 127.142 52.4603 126.993 51.93 126.695C51.3997 126.392 50.9831 125.937 50.68 125.331C50.377 124.72 50.2255 123.951 50.2255 123.023V116.091H51.9016V122.909C51.9016 123.705 52.1242 124.339 52.5692 124.812C53.0191 125.286 53.592 125.523 54.288 125.523C54.7047 125.523 55.1284 125.416 55.5593 125.203C55.9949 124.99 56.3595 124.663 56.6531 124.223C56.9513 123.783 57.1005 123.222 57.1005 122.54ZM61.8466 127V116.091H63.4659V117.739H63.5795C63.7784 117.199 64.1383 116.761 64.6591 116.425C65.1799 116.089 65.767 115.92 66.4205 115.92C66.5436 115.92 66.6974 115.923 66.8821 115.928C67.0668 115.932 67.2064 115.939 67.3011 115.949V117.653C67.2443 117.639 67.1141 117.618 66.9105 117.589C66.7116 117.556 66.5009 117.54 66.2784 117.54C65.7481 117.54 65.2746 117.651 64.858 117.874C64.446 118.091 64.1193 118.394 63.8778 118.783C63.6411 119.166 63.5227 119.604 63.5227 120.097V127H61.8466ZM79.3448 127.227C78.36 127.227 77.4959 126.993 76.7525 126.524C76.0138 126.055 75.4362 125.4 75.0195 124.557C74.6076 123.714 74.4016 122.729 74.4016 121.602C74.4016 120.466 74.6076 119.474 75.0195 118.626C75.4362 117.779 76.0138 117.121 76.7525 116.652C77.4959 116.183 78.36 115.949 79.3448 115.949C80.3297 115.949 81.1914 116.183 81.93 116.652C82.6734 117.121 83.2511 117.779 83.663 118.626C84.0797 119.474 84.288 120.466 84.288 121.602C84.288 122.729 84.0797 123.714 83.663 124.557C83.2511 125.4 82.6734 126.055 81.93 126.524C81.1914 126.993 80.3297 127.227 79.3448 127.227ZM79.3448 125.722C80.0929 125.722 80.7085 125.53 81.1914 125.146C81.6744 124.763 82.0318 124.259 82.2638 123.634C82.4959 123.009 82.6119 122.331 82.6119 121.602C82.6119 120.873 82.4959 120.194 82.2638 119.564C82.0318 118.934 81.6744 118.425 81.1914 118.037C80.7085 117.649 80.0929 117.455 79.3448 117.455C78.5967 117.455 77.9812 117.649 77.4982 118.037C77.0153 118.425 76.6578 118.934 76.4258 119.564C76.1938 120.194 76.0778 120.873 76.0778 121.602C76.0778 122.331 76.1938 123.009 76.4258 123.634C76.6578 124.259 77.0153 124.763 77.4982 125.146C77.9812 125.53 78.5967 125.722 79.3448 125.722ZM88.5227 120.438V127H86.8466V116.091H88.4659V117.795H88.608C88.8636 117.241 89.2519 116.796 89.7727 116.46C90.2936 116.119 90.9659 115.949 91.7898 115.949C92.5284 115.949 93.1747 116.1 93.7287 116.403C94.2827 116.702 94.7135 117.156 95.0213 117.767C95.3291 118.373 95.483 119.14 95.483 120.068V127H93.8068V120.182C93.8068 119.325 93.5843 118.657 93.1392 118.179C92.6941 117.696 92.0833 117.455 91.3068 117.455C90.7718 117.455 90.2936 117.571 89.8722 117.803C89.4555 118.035 89.1264 118.373 88.8849 118.818C88.6435 119.263 88.5227 119.803 88.5227 120.438ZM100.222 112.455V127H98.5458V112.455H100.222ZM103.292 127V116.091H104.968V127H103.292ZM104.144 114.273C103.817 114.273 103.536 114.161 103.299 113.939C103.067 113.716 102.951 113.449 102.951 113.136C102.951 112.824 103.067 112.556 103.299 112.334C103.536 112.111 103.817 112 104.144 112C104.471 112 104.75 112.111 104.982 112.334C105.219 112.556 105.337 112.824 105.337 113.136C105.337 113.449 105.219 113.716 104.982 113.939C104.75 114.161 104.471 114.273 104.144 114.273ZM109.714 120.438V127H108.038V116.091H109.657V117.795H109.799C110.055 117.241 110.443 116.796 110.964 116.46C111.485 116.119 112.157 115.949 112.981 115.949C113.72 115.949 114.366 116.1 114.92 116.403C115.474 116.702 115.905 117.156 116.213 117.767C116.52 118.373 116.674 119.14 116.674 120.068V127H114.998V120.182C114.998 119.325 114.776 118.657 114.331 118.179C113.886 117.696 113.275 117.455 112.498 117.455C111.963 117.455 111.485 117.571 111.064 117.803C110.647 118.035 110.318 118.373 110.076 118.818C109.835 119.263 109.714 119.803 109.714 120.438ZM124.311 127.227C123.26 127.227 122.353 126.995 121.591 126.531C120.833 126.062 120.249 125.409 119.837 124.571C119.429 123.728 119.226 122.748 119.226 121.631C119.226 120.513 119.429 119.528 119.837 118.676C120.249 117.819 120.821 117.152 121.555 116.673C122.294 116.19 123.156 115.949 124.141 115.949C124.709 115.949 125.27 116.044 125.824 116.233C126.378 116.422 126.882 116.73 127.337 117.156C127.791 117.578 128.153 118.136 128.423 118.832C128.693 119.528 128.828 120.385 128.828 121.403V122.114H120.419V120.665H127.124C127.124 120.049 127 119.5 126.754 119.017C126.513 118.534 126.167 118.153 125.717 117.874C125.272 117.594 124.747 117.455 124.141 117.455C123.473 117.455 122.895 117.62 122.408 117.952C121.925 118.278 121.553 118.705 121.293 119.23C121.032 119.756 120.902 120.319 120.902 120.92V121.886C120.902 122.71 121.044 123.409 121.328 123.982C121.617 124.55 122.017 124.983 122.528 125.281C123.04 125.575 123.634 125.722 124.311 125.722C124.751 125.722 125.149 125.66 125.504 125.537C125.864 125.409 126.174 125.22 126.435 124.969C126.695 124.713 126.896 124.396 127.038 124.017L128.658 124.472C128.487 125.021 128.201 125.504 127.798 125.92C127.396 126.332 126.899 126.654 126.307 126.886C125.715 127.114 125.05 127.227 124.311 127.227ZM133.878 125.011L133.764 125.778C133.684 126.318 133.561 126.896 133.395 127.511C133.234 128.127 133.066 128.707 132.891 129.251C132.715 129.796 132.571 130.229 132.457 130.551H131.179C131.241 130.248 131.321 129.848 131.42 129.351C131.52 128.854 131.619 128.297 131.719 127.682C131.823 127.071 131.908 126.446 131.974 125.807L132.06 125.011H133.878ZM147.04 127.227C146.055 127.227 145.191 126.993 144.448 126.524C143.709 126.055 143.132 125.4 142.715 124.557C142.303 123.714 142.097 122.729 142.097 121.602C142.097 120.466 142.303 119.474 142.715 118.626C143.132 117.779 143.709 117.121 144.448 116.652C145.191 116.183 146.055 115.949 147.04 115.949C148.025 115.949 148.887 116.183 149.625 116.652C150.369 117.121 150.946 117.779 151.358 118.626C151.775 119.474 151.983 120.466 151.983 121.602C151.983 122.729 151.775 123.714 151.358 124.557C150.946 125.4 150.369 126.055 149.625 126.524C148.887 126.993 148.025 127.227 147.04 127.227ZM147.04 125.722C147.788 125.722 148.404 125.53 148.887 125.146C149.37 124.763 149.727 124.259 149.959 123.634C150.191 123.009 150.307 122.331 150.307 121.602C150.307 120.873 150.191 120.194 149.959 119.564C149.727 118.934 149.37 118.425 148.887 118.037C148.404 117.649 147.788 117.455 147.04 117.455C146.292 117.455 145.676 117.649 145.194 118.037C144.711 118.425 144.353 118.934 144.121 119.564C143.889 120.194 143.773 120.873 143.773 121.602C143.773 122.331 143.889 123.009 144.121 123.634C144.353 124.259 144.711 124.763 145.194 125.146C145.676 125.53 146.292 125.722 147.04 125.722ZM154.542 131.091V116.091H156.161V117.824H156.36C156.483 117.634 156.654 117.393 156.871 117.099C157.094 116.801 157.411 116.536 157.823 116.304C158.24 116.067 158.803 115.949 159.513 115.949C160.432 115.949 161.242 116.179 161.942 116.638C162.643 117.097 163.19 117.748 163.583 118.591C163.976 119.434 164.173 120.428 164.173 121.574C164.173 122.729 163.976 123.731 163.583 124.578C163.19 125.421 162.646 126.074 161.95 126.538C161.254 126.998 160.451 127.227 159.542 127.227C158.841 127.227 158.28 127.111 157.859 126.879C157.437 126.643 157.113 126.375 156.886 126.077C156.658 125.774 156.483 125.523 156.36 125.324H156.218V131.091H154.542ZM156.19 121.545C156.19 122.369 156.31 123.096 156.552 123.726C156.793 124.351 157.146 124.841 157.61 125.196C158.074 125.546 158.642 125.722 159.315 125.722C160.015 125.722 160.6 125.537 161.069 125.168C161.542 124.794 161.897 124.292 162.134 123.662C162.376 123.027 162.496 122.322 162.496 121.545C162.496 120.778 162.378 120.087 162.141 119.472C161.909 118.851 161.557 118.361 161.083 118.001C160.614 117.637 160.025 117.455 159.315 117.455C158.633 117.455 158.06 117.627 157.596 117.973C157.132 118.314 156.781 118.792 156.545 119.408C156.308 120.018 156.19 120.731 156.19 121.545ZM171.303 127.227C170.252 127.227 169.345 126.995 168.583 126.531C167.826 126.062 167.241 125.409 166.829 124.571C166.422 123.728 166.218 122.748 166.218 121.631C166.218 120.513 166.422 119.528 166.829 118.676C167.241 117.819 167.814 117.152 168.548 116.673C169.286 116.19 170.148 115.949 171.133 115.949C171.701 115.949 172.262 116.044 172.816 116.233C173.37 116.422 173.874 116.73 174.329 117.156C174.783 117.578 175.146 118.136 175.415 118.832C175.685 119.528 175.82 120.385 175.82 121.403V122.114H167.411V120.665H174.116C174.116 120.049 173.993 119.5 173.746 119.017C173.505 118.534 173.159 118.153 172.71 117.874C172.264 117.594 171.739 117.455 171.133 117.455C170.465 117.455 169.888 117.62 169.4 117.952C168.917 118.278 168.545 118.705 168.285 119.23C168.024 119.756 167.894 120.319 167.894 120.92V121.886C167.894 122.71 168.036 123.409 168.32 123.982C168.609 124.55 169.009 124.983 169.521 125.281C170.032 125.575 170.626 125.722 171.303 125.722C171.744 125.722 172.141 125.66 172.496 125.537C172.856 125.409 173.166 125.22 173.427 124.969C173.687 124.713 173.888 124.396 174.031 124.017L175.65 124.472C175.479 125.021 175.193 125.504 174.79 125.92C174.388 126.332 173.891 126.654 173.299 126.886C172.707 127.114 172.042 127.227 171.303 127.227ZM180.046 120.438V127H178.37V116.091H179.989V117.795H180.131C180.387 117.241 180.775 116.796 181.296 116.46C181.817 116.119 182.489 115.949 183.313 115.949C184.052 115.949 184.698 116.1 185.252 116.403C185.806 116.702 186.237 117.156 186.545 117.767C186.853 118.373 187.006 119.14 187.006 120.068V127H185.33V120.182C185.33 119.325 185.108 118.657 184.663 118.179C184.218 117.696 183.607 117.455 182.83 117.455C182.295 117.455 181.817 117.571 181.396 117.803C180.979 118.035 180.65 118.373 180.408 118.818C180.167 119.263 180.046 119.803 180.046 120.438ZM196.319 119.983V121.545H189.956V119.983H196.319ZM206.996 118.534L205.49 118.96C205.395 118.709 205.256 118.465 205.071 118.229C204.891 117.987 204.645 117.788 204.332 117.632C204.02 117.476 203.62 117.398 203.132 117.398C202.464 117.398 201.908 117.552 201.463 117.859C201.023 118.162 200.803 118.548 200.803 119.017C200.803 119.434 200.954 119.763 201.257 120.004C201.56 120.246 202.034 120.447 202.678 120.608L204.297 121.006C205.272 121.242 205.999 121.605 206.477 122.092C206.955 122.575 207.195 123.198 207.195 123.96C207.195 124.585 207.015 125.144 206.655 125.636C206.3 126.129 205.803 126.517 205.163 126.801C204.524 127.085 203.781 127.227 202.933 127.227C201.821 127.227 200.9 126.986 200.17 126.503C199.441 126.02 198.98 125.314 198.786 124.386L200.376 123.989C200.528 124.576 200.814 125.016 201.236 125.31C201.662 125.603 202.218 125.75 202.905 125.75C203.686 125.75 204.306 125.584 204.766 125.253C205.23 124.917 205.462 124.514 205.462 124.045C205.462 123.667 205.329 123.349 205.064 123.094C204.799 122.833 204.392 122.639 203.842 122.511L202.024 122.085C201.025 121.848 200.291 121.482 199.822 120.984C199.358 120.482 199.126 119.855 199.126 119.102C199.126 118.487 199.299 117.942 199.645 117.469C199.995 116.995 200.471 116.624 201.072 116.354C201.679 116.084 202.365 115.949 203.132 115.949C204.212 115.949 205.059 116.186 205.675 116.659C206.295 117.133 206.735 117.758 206.996 118.534ZM214.15 127.227C213.165 127.227 212.301 126.993 211.557 126.524C210.819 126.055 210.241 125.4 209.824 124.557C209.412 123.714 209.206 122.729 209.206 121.602C209.206 120.466 209.412 119.474 209.824 118.626C210.241 117.779 210.819 117.121 211.557 116.652C212.301 116.183 213.165 115.949 214.15 115.949C215.134 115.949 215.996 116.183 216.735 116.652C217.478 117.121 218.056 117.779 218.468 118.626C218.884 119.474 219.093 120.466 219.093 121.602C219.093 122.729 218.884 123.714 218.468 124.557C218.056 125.4 217.478 126.055 216.735 126.524C215.996 126.993 215.134 127.227 214.15 127.227ZM214.15 125.722C214.898 125.722 215.513 125.53 215.996 125.146C216.479 124.763 216.837 124.259 217.069 123.634C217.301 123.009 217.417 122.331 217.417 121.602C217.417 120.873 217.301 120.194 217.069 119.564C216.837 118.934 216.479 118.425 215.996 118.037C215.513 117.649 214.898 117.455 214.15 117.455C213.401 117.455 212.786 117.649 212.303 118.037C211.82 118.425 211.462 118.934 211.23 119.564C210.998 120.194 210.882 120.873 210.882 121.602C210.882 122.331 210.998 123.009 211.23 123.634C211.462 124.259 211.82 124.763 212.303 125.146C212.786 125.53 213.401 125.722 214.15 125.722ZM228.526 122.54V116.091H230.202V127H228.526V125.153H228.413C228.157 125.707 227.759 126.179 227.219 126.567C226.68 126.95 225.998 127.142 225.174 127.142C224.492 127.142 223.886 126.993 223.356 126.695C222.826 126.392 222.409 125.937 222.106 125.331C221.803 124.72 221.651 123.951 221.651 123.023V116.091H223.327V122.909C223.327 123.705 223.55 124.339 223.995 124.812C224.445 125.286 225.018 125.523 225.714 125.523C226.13 125.523 226.554 125.416 226.985 125.203C227.421 124.99 227.785 124.663 228.079 124.223C228.377 123.783 228.526 123.222 228.526 122.54ZM233.272 127V116.091H234.892V117.739H235.005C235.204 117.199 235.564 116.761 236.085 116.425C236.606 116.089 237.193 115.92 237.846 115.92C237.969 115.92 238.123 115.923 238.308 115.928C238.493 115.932 238.632 115.939 238.727 115.949V117.653C238.67 117.639 238.54 117.618 238.336 117.589C238.137 117.556 237.927 117.54 237.704 117.54C237.174 117.54 236.7 117.651 236.284 117.874C235.872 118.091 235.545 118.394 235.304 118.783C235.067 119.166 234.949 119.604 234.949 120.097V127H233.272ZM244.814 127.227C243.791 127.227 242.91 126.986 242.172 126.503C241.433 126.02 240.865 125.355 240.467 124.507C240.069 123.66 239.87 122.691 239.87 121.602C239.87 120.494 240.074 119.517 240.481 118.669C240.893 117.817 241.466 117.152 242.2 116.673C242.939 116.19 243.8 115.949 244.785 115.949C245.552 115.949 246.243 116.091 246.859 116.375C247.475 116.659 247.979 117.057 248.372 117.568C248.765 118.08 249.009 118.676 249.103 119.358H247.427C247.299 118.861 247.015 118.42 246.575 118.037C246.139 117.649 245.552 117.455 244.814 117.455C244.16 117.455 243.587 117.625 243.095 117.966C242.607 118.302 242.226 118.778 241.951 119.393C241.681 120.004 241.547 120.722 241.547 121.545C241.547 122.388 241.679 123.122 241.944 123.747C242.214 124.372 242.593 124.857 243.081 125.203C243.573 125.549 244.151 125.722 244.814 125.722C245.249 125.722 245.645 125.646 246 125.494C246.355 125.343 246.655 125.125 246.902 124.841C247.148 124.557 247.323 124.216 247.427 123.818H249.103C249.009 124.462 248.774 125.042 248.4 125.558C248.031 126.07 247.541 126.477 246.93 126.78C246.324 127.078 245.618 127.227 244.814 127.227ZM256.127 127.227C255.076 127.227 254.17 126.995 253.407 126.531C252.65 126.062 252.065 125.409 251.653 124.571C251.246 123.728 251.042 122.748 251.042 121.631C251.042 120.513 251.246 119.528 251.653 118.676C252.065 117.819 252.638 117.152 253.372 116.673C254.11 116.19 254.972 115.949 255.957 115.949C256.525 115.949 257.086 116.044 257.64 116.233C258.194 116.422 258.699 116.73 259.153 117.156C259.608 117.578 259.97 118.136 260.24 118.832C260.51 119.528 260.645 120.385 260.645 121.403V122.114H252.235V120.665H258.94C258.94 120.049 258.817 119.5 258.571 119.017C258.329 118.534 257.984 118.153 257.534 117.874C257.089 117.594 256.563 117.455 255.957 117.455C255.289 117.455 254.712 117.62 254.224 117.952C253.741 118.278 253.369 118.705 253.109 119.23C252.849 119.756 252.718 120.319 252.718 120.92V121.886C252.718 122.71 252.86 123.409 253.145 123.982C253.433 124.55 253.833 124.983 254.345 125.281C254.856 125.575 255.45 125.722 256.127 125.722C256.568 125.722 256.966 125.66 257.321 125.537C257.681 125.409 257.991 125.22 258.251 124.969C258.511 124.713 258.713 124.396 258.855 124.017L260.474 124.472C260.304 125.021 260.017 125.504 259.615 125.92C259.212 126.332 258.715 126.654 258.123 126.886C257.531 127.114 256.866 127.227 256.127 127.227ZM265.694 125.011L265.581 125.778C265.5 126.318 265.377 126.896 265.211 127.511C265.05 128.127 264.882 128.707 264.707 129.251C264.532 129.796 264.387 130.229 264.274 130.551H262.995C263.057 130.248 263.137 129.848 263.237 129.351C263.336 128.854 263.436 128.297 263.535 127.682C263.639 127.071 263.725 126.446 263.791 125.807L263.876 125.011H265.694ZM274.425 131.091V116.091H276.044V117.824H276.243C276.366 117.634 276.536 117.393 276.754 117.099C276.977 116.801 277.294 116.536 277.706 116.304C278.123 116.067 278.686 115.949 279.396 115.949C280.315 115.949 281.125 116.179 281.825 116.638C282.526 117.097 283.073 117.748 283.466 118.591C283.859 119.434 284.055 120.428 284.055 121.574C284.055 122.729 283.859 123.731 283.466 124.578C283.073 125.421 282.528 126.074 281.832 126.538C281.136 126.998 280.334 127.227 279.425 127.227C278.724 127.227 278.163 127.111 277.741 126.879C277.32 126.643 276.996 126.375 276.768 126.077C276.541 125.774 276.366 125.523 276.243 125.324H276.101V131.091H274.425ZM276.072 121.545C276.072 122.369 276.193 123.096 276.435 123.726C276.676 124.351 277.029 124.841 277.493 125.196C277.957 125.546 278.525 125.722 279.197 125.722C279.898 125.722 280.483 125.537 280.952 125.168C281.425 124.794 281.78 124.292 282.017 123.662C282.259 123.027 282.379 122.322 282.379 121.545C282.379 120.778 282.261 120.087 282.024 119.472C281.792 118.851 281.439 118.361 280.966 118.001C280.497 117.637 279.908 117.455 279.197 117.455C278.516 117.455 277.943 117.627 277.479 117.973C277.015 118.314 276.664 118.792 276.428 119.408C276.191 120.018 276.072 120.731 276.072 121.545ZM288.288 112.455V127H286.612V112.455H288.288ZM294.569 127.256C293.877 127.256 293.25 127.125 292.686 126.865C292.123 126.6 291.676 126.219 291.344 125.722C291.013 125.22 290.847 124.614 290.847 123.903C290.847 123.278 290.97 122.772 291.216 122.384C291.462 121.991 291.792 121.683 292.203 121.46C292.615 121.238 293.07 121.072 293.567 120.963C294.069 120.849 294.573 120.759 295.08 120.693C295.743 120.608 296.28 120.544 296.692 120.501C297.109 120.454 297.412 120.376 297.601 120.267C297.795 120.158 297.892 119.969 297.892 119.699V119.642C297.892 118.941 297.701 118.397 297.317 118.009C296.938 117.62 296.363 117.426 295.591 117.426C294.791 117.426 294.164 117.601 293.709 117.952C293.255 118.302 292.935 118.676 292.75 119.074L291.159 118.506C291.444 117.843 291.822 117.327 292.296 116.957C292.774 116.583 293.295 116.323 293.858 116.176C294.426 116.025 294.985 115.949 295.534 115.949C295.885 115.949 296.287 115.991 296.742 116.077C297.201 116.157 297.644 116.325 298.07 116.581C298.501 116.837 298.858 117.223 299.142 117.739C299.426 118.255 299.569 118.946 299.569 119.812V127H297.892V125.523H297.807C297.694 125.759 297.504 126.013 297.239 126.283C296.974 126.553 296.621 126.782 296.181 126.972C295.74 127.161 295.203 127.256 294.569 127.256ZM294.824 125.75C295.487 125.75 296.046 125.62 296.5 125.359C296.96 125.099 297.305 124.763 297.537 124.351C297.774 123.939 297.892 123.506 297.892 123.051V121.517C297.821 121.602 297.665 121.68 297.424 121.751C297.187 121.818 296.912 121.877 296.6 121.929C296.292 121.976 295.991 122.019 295.698 122.057C295.409 122.09 295.175 122.118 294.995 122.142C294.559 122.199 294.152 122.291 293.773 122.419C293.399 122.542 293.096 122.729 292.864 122.98C292.637 123.226 292.523 123.562 292.523 123.989C292.523 124.571 292.739 125.011 293.169 125.31C293.605 125.603 294.157 125.75 294.824 125.75ZM304.304 120.438V127H302.628V116.091H304.247V117.795H304.389C304.645 117.241 305.033 116.796 305.554 116.46C306.075 116.119 306.747 115.949 307.571 115.949C308.31 115.949 308.956 116.1 309.51 116.403C310.064 116.702 310.495 117.156 310.803 117.767C311.11 118.373 311.264 119.14 311.264 120.068V127H309.588V120.182C309.588 119.325 309.366 118.657 308.92 118.179C308.475 117.696 307.865 117.455 307.088 117.455C306.553 117.455 306.075 117.571 305.653 117.803C305.237 118.035 304.908 118.373 304.666 118.818C304.425 119.263 304.304 119.803 304.304 120.438ZM316.003 120.438V127H314.327V116.091H315.946V117.795H316.088C316.344 117.241 316.732 116.796 317.253 116.46C317.774 116.119 318.446 115.949 319.27 115.949C320.009 115.949 320.655 116.1 321.209 116.403C321.763 116.702 322.194 117.156 322.502 117.767C322.81 118.373 322.963 119.14 322.963 120.068V127H321.287V120.182C321.287 119.325 321.065 118.657 320.62 118.179C320.175 117.696 319.564 117.455 318.787 117.455C318.252 117.455 317.774 117.571 317.353 117.803C316.936 118.035 316.607 118.373 316.365 118.818C316.124 119.263 316.003 119.803 316.003 120.438ZM326.026 127V116.091H327.702V127H326.026ZM326.879 114.273C326.552 114.273 326.27 114.161 326.033 113.939C325.801 113.716 325.685 113.449 325.685 113.136C325.685 112.824 325.801 112.556 326.033 112.334C326.27 112.111 326.552 112 326.879 112C327.205 112 327.485 112.111 327.717 112.334C327.953 112.556 328.072 112.824 328.072 113.136C328.072 113.449 327.953 113.716 327.717 113.939C327.485 114.161 327.205 114.273 326.879 114.273ZM332.449 120.438V127H330.772V116.091H332.392V117.795H332.534C332.789 117.241 333.178 116.796 333.699 116.46C334.219 116.119 334.892 115.949 335.716 115.949C336.454 115.949 337.1 116.1 337.654 116.403C338.208 116.702 338.639 117.156 338.947 117.767C339.255 118.373 339.409 119.14 339.409 120.068V127H337.733V120.182C337.733 119.325 337.51 118.657 337.065 118.179C336.62 117.696 336.009 117.455 335.233 117.455C334.698 117.455 334.219 117.571 333.798 117.803C333.381 118.035 333.052 118.373 332.811 118.818C332.569 119.263 332.449 119.803 332.449 120.438ZM346.875 131.318C346.065 131.318 345.369 131.214 344.787 131.006C344.205 130.802 343.719 130.532 343.331 130.196C342.947 129.865 342.642 129.509 342.415 129.131L343.75 128.193C343.902 128.392 344.093 128.619 344.325 128.875C344.557 129.135 344.875 129.36 345.277 129.55C345.684 129.744 346.217 129.841 346.875 129.841C347.756 129.841 348.482 129.628 349.055 129.202C349.628 128.776 349.915 128.108 349.915 127.199V124.983H349.773C349.65 125.182 349.474 125.428 349.247 125.722C349.025 126.01 348.703 126.268 348.281 126.496C347.865 126.718 347.301 126.83 346.591 126.83C345.71 126.83 344.92 126.621 344.219 126.205C343.523 125.788 342.971 125.182 342.564 124.386C342.161 123.591 341.96 122.625 341.96 121.489C341.96 120.371 342.157 119.398 342.55 118.57C342.943 117.736 343.49 117.092 344.19 116.638C344.891 116.179 345.701 115.949 346.619 115.949C347.33 115.949 347.893 116.067 348.31 116.304C348.731 116.536 349.053 116.801 349.276 117.099C349.503 117.393 349.678 117.634 349.801 117.824H349.972V116.091H351.591V127.312C351.591 128.25 351.378 129.012 350.952 129.599C350.53 130.191 349.962 130.625 349.247 130.899C348.537 131.179 347.746 131.318 346.875 131.318ZM346.818 125.324C347.491 125.324 348.059 125.17 348.523 124.862C348.987 124.554 349.339 124.112 349.581 123.534C349.822 122.956 349.943 122.265 349.943 121.46C349.943 120.674 349.825 119.981 349.588 119.379C349.351 118.778 349.001 118.307 348.537 117.966C348.073 117.625 347.5 117.455 346.818 117.455C346.108 117.455 345.516 117.634 345.043 117.994C344.574 118.354 344.221 118.837 343.984 119.443C343.752 120.049 343.636 120.722 343.636 121.46C343.636 122.218 343.755 122.888 343.991 123.47C344.233 124.048 344.588 124.502 345.057 124.834C345.53 125.161 346.117 125.324 346.818 125.324ZM360.284 131.091V116.091H361.903V117.824H362.102C362.225 117.634 362.396 117.393 362.614 117.099C362.836 116.801 363.153 116.536 363.565 116.304C363.982 116.067 364.545 115.949 365.256 115.949C366.174 115.949 366.984 116.179 367.685 116.638C368.385 117.097 368.932 117.748 369.325 118.591C369.718 119.434 369.915 120.428 369.915 121.574C369.915 122.729 369.718 123.731 369.325 124.578C368.932 125.421 368.388 126.074 367.692 126.538C366.996 126.998 366.193 127.227 365.284 127.227C364.583 127.227 364.022 127.111 363.601 126.879C363.179 126.643 362.855 126.375 362.628 126.077C362.401 125.774 362.225 125.523 362.102 125.324H361.96V131.091H360.284ZM361.932 121.545C361.932 122.369 362.053 123.096 362.294 123.726C362.536 124.351 362.888 124.841 363.352 125.196C363.816 125.546 364.384 125.722 365.057 125.722C365.758 125.722 366.342 125.537 366.811 125.168C367.285 124.794 367.64 124.292 367.876 123.662C368.118 123.027 368.239 122.322 368.239 121.545C368.239 120.778 368.12 120.087 367.884 119.472C367.652 118.851 367.299 118.361 366.825 118.001C366.357 117.637 365.767 117.455 365.057 117.455C364.375 117.455 363.802 117.627 363.338 117.973C362.874 118.314 362.524 118.792 362.287 119.408C362.05 120.018 361.932 120.731 361.932 121.545ZM376.903 127.227C375.919 127.227 375.054 126.993 374.311 126.524C373.572 126.055 372.995 125.4 372.578 124.557C372.166 123.714 371.96 122.729 371.96 121.602C371.96 120.466 372.166 119.474 372.578 118.626C372.995 117.779 373.572 117.121 374.311 116.652C375.054 116.183 375.919 115.949 376.903 115.949C377.888 115.949 378.75 116.183 379.489 116.652C380.232 117.121 380.81 117.779 381.222 118.626C381.638 119.474 381.847 120.466 381.847 121.602C381.847 122.729 381.638 123.714 381.222 124.557C380.81 125.4 380.232 126.055 379.489 126.524C378.75 126.993 377.888 127.227 376.903 127.227ZM376.903 125.722C377.652 125.722 378.267 125.53 378.75 125.146C379.233 124.763 379.59 124.259 379.822 123.634C380.054 123.009 380.17 122.331 380.17 121.602C380.17 120.873 380.054 120.194 379.822 119.564C379.59 118.934 379.233 118.425 378.75 118.037C378.267 117.649 377.652 117.455 376.903 117.455C376.155 117.455 375.54 117.649 375.057 118.037C374.574 118.425 374.216 118.934 373.984 119.564C373.752 120.194 373.636 120.873 373.636 121.602C373.636 122.331 373.752 123.009 373.984 123.634C374.216 124.259 374.574 124.763 375.057 125.146C375.54 125.53 376.155 125.722 376.903 125.722ZM385.968 123.023L385.939 120.949H386.28L391.053 116.091H393.127L388.042 121.233H387.9L385.968 123.023ZM384.405 127V112.455H386.081V127H384.405ZM391.337 127L387.076 121.602L388.269 120.438L393.468 127H391.337ZM399.409 127.227C398.358 127.227 397.451 126.995 396.689 126.531C395.931 126.062 395.346 125.409 394.934 124.571C394.527 123.728 394.324 122.748 394.324 121.631C394.324 120.513 394.527 119.528 394.934 118.676C395.346 117.819 395.919 117.152 396.653 116.673C397.392 116.19 398.253 115.949 399.238 115.949C399.806 115.949 400.368 116.044 400.922 116.233C401.475 116.422 401.98 116.73 402.434 117.156C402.889 117.578 403.251 118.136 403.521 118.832C403.791 119.528 403.926 120.385 403.926 121.403V122.114H395.517V120.665H402.221C402.221 120.049 402.098 119.5 401.852 119.017C401.61 118.534 401.265 118.153 400.815 117.874C400.37 117.594 399.844 117.455 399.238 117.455C398.571 117.455 397.993 117.62 397.505 117.952C397.022 118.278 396.651 118.705 396.39 119.23C396.13 119.756 396 120.319 396 120.92V121.886C396 122.71 396.142 123.409 396.426 123.982C396.715 124.55 397.115 124.983 397.626 125.281C398.137 125.575 398.732 125.722 399.409 125.722C399.849 125.722 400.247 125.66 400.602 125.537C400.962 125.409 401.272 125.22 401.532 124.969C401.793 124.713 401.994 124.396 402.136 124.017L403.755 124.472C403.585 125.021 403.298 125.504 402.896 125.92C402.493 126.332 401.996 126.654 401.404 126.886C400.813 127.114 400.147 127.227 399.409 127.227ZM406.475 127V116.091H408.095V117.739H408.208C408.407 117.199 408.767 116.761 409.288 116.425C409.809 116.089 410.396 115.92 411.049 115.92C411.172 115.92 411.326 115.923 411.511 115.928C411.696 115.932 411.835 115.939 411.93 115.949V117.653C411.873 117.639 411.743 117.618 411.539 117.589C411.341 117.556 411.13 117.54 410.907 117.54C410.377 117.54 409.904 117.651 409.487 117.874C409.075 118.091 408.748 118.394 408.507 118.783C408.27 119.166 408.152 119.604 408.152 120.097V127H406.475Z" fill="black"/>
<path d="M29.7012 52.354C30.2635 55.5692 31.1453 58.385 32.3467 60.8013C33.6105 63.2036 35.1259 65.189 36.8928 66.7575C38.7112 68.2489 40.7701 69.2603 43.0695 69.7918C45.3689 70.3233 47.8924 70.2803 50.6398 69.6627C53.3248 69.0592 55.6407 68.0145 57.5873 66.5286C59.5963 65.0287 61.1591 63.2032 62.2755 61.0521C63.4433 58.824 64.1759 56.3333 64.4731 53.5801C64.8328 50.8129 64.7315 47.8217 64.1692 44.6065C63.6069 41.3913 62.6938 38.5825 61.43 36.1802C60.2177 33.7008 58.7023 31.7154 56.8839 30.224C55.117 28.6556 53.0526 27.6126 50.6907 27.0951C48.3913 26.5637 45.899 26.5997 43.214 27.2032C40.4666 27.8207 38.1251 28.904 36.1895 30.4529C34.2428 31.9388 32.6856 33.7958 31.5178 36.024C30.4014 38.175 29.6688 40.6657 29.3201 43.496C29.0229 46.2492 29.1499 49.2018 29.7012 52.354ZM79.249 41.2169C80.2303 46.8278 80.2528 51.9661 79.3166 56.632C78.4318 61.2208 76.8069 65.288 74.4417 68.8337C72.0656 72.3162 69.0061 75.2316 65.2634 77.5799C61.5832 79.9141 57.4639 81.5935 52.9056 82.6181C48.4722 83.6146 44.1618 83.83 39.9744 83.2642C35.7869 82.6984 31.9778 81.3269 28.5468 79.1496C25.1049 76.9093 22.1716 73.8667 19.7469 70.0218C17.3112 66.1138 15.6027 61.3544 14.6214 55.7435C13.6402 50.1327 13.6543 45.0188 14.664 40.402C15.6626 35.722 17.3757 31.6023 19.8033 28.0426C22.2934 24.4689 25.3473 21.522 28.9651 19.2018C32.6454 16.8676 36.6397 15.2163 40.9482 14.2478C45.3816 13.2513 49.692 13.0359 53.8795 13.6017C58.0669 14.1675 61.8816 15.5705 65.3236 17.8108C68.7655 20.0512 71.7044 23.1253 74.1401 27.0333C76.5647 30.8782 78.2677 35.6061 79.249 41.2169Z" fill="black"/>
<path d="M121.173 44.8682C120.753 40.4722 119.433 37.0891 117.214 34.7189C114.989 32.285 111.94 31.306 108.065 31.782C106.794 31.938 105.625 32.1461 104.557 32.4061C103.484 32.6025 102.603 32.8073 101.917 33.0205L104.374 58.7274C105.318 59.1915 106.507 59.5289 107.941 59.7395C109.439 59.9423 110.918 59.954 112.379 59.7745C119.112 58.9475 122.044 53.9787 121.173 44.8682ZM135.619 42.707C135.991 46.5932 135.852 50.1877 135.204 53.4902C134.556 56.7927 133.42 59.7039 131.797 62.2237C130.174 64.7435 128.058 66.8083 125.448 68.418C122.838 70.0277 119.755 71.051 116.198 71.488C114.228 71.7298 112.368 71.765 110.616 71.5934C108.865 71.4218 107.161 71.0831 105.506 70.5774L107.315 89.4992L93.1174 91.2431L86.788 25.0168C88.0219 24.4785 89.4494 23.9486 91.0706 23.4272C92.6856 22.8421 94.3703 22.3129 96.1246 21.8396C97.9424 21.3585 99.7663 20.9411 101.596 20.5874C103.484 20.1622 105.285 19.8442 107 19.6336C111.129 19.1264 114.874 19.3109 118.236 20.1872C121.591 20.9998 124.49 22.4163 126.932 24.4367C129.369 26.3935 131.314 28.9262 132.768 32.035C134.285 35.1359 135.236 38.6932 135.619 42.707Z" fill="black"/>
<path d="M142.718 42.762C142.592 38.2838 143.155 34.3572 144.405 30.9822C145.717 27.5409 147.461 24.6604 149.637 22.3408C151.813 20.0212 154.324 18.2339 157.17 16.9788C160.08 15.7215 163.07 15.0376 166.14 14.9272C173.303 14.6697 179.025 16.6733 183.306 20.938C187.585 25.1389 189.844 31.4936 190.082 40.0023C190.105 40.8339 190.099 41.7627 190.064 42.7886C190.026 43.7506 189.987 44.6165 189.944 45.3865L157.517 46.5525C157.919 49.4839 159.36 51.7695 161.838 53.4094C164.317 55.0494 167.603 55.7957 171.697 55.6486C174.319 55.5543 176.871 55.2384 179.353 54.7008C181.897 54.0971 183.958 53.4145 185.538 52.6533L187.781 64.1958C187.025 64.6072 186.012 65.0279 184.744 65.4577C183.475 65.8876 182.045 66.2592 180.453 66.5726C178.927 66.9477 177.271 67.2634 175.486 67.5197C173.7 67.776 171.912 67.9364 170.121 68.0007C165.58 68.164 161.596 67.6349 158.169 66.4133C154.805 65.1894 151.972 63.4662 149.669 61.2436C147.428 58.9547 145.72 56.2304 144.543 53.0708C143.43 49.9088 142.822 46.4726 142.718 42.762ZM176.143 36.0848C176.045 34.8715 175.788 33.696 175.372 32.5583C175.02 31.4182 174.448 30.4142 173.655 29.5461C172.927 28.6758 171.979 27.9734 170.811 27.439C169.708 26.9024 168.325 26.6639 166.662 26.7237C165.063 26.7812 163.696 27.1186 162.561 27.7357C161.424 28.2889 160.484 29.0271 159.742 29.9504C158.999 30.8736 158.421 31.9511 158.007 33.1827C157.656 34.348 157.401 35.5419 157.243 36.7644L176.143 36.0848Z" fill="black"/>
<path d="M201.448 17.6008C203.905 17.0182 207.061 16.5347 210.919 16.1502C214.779 15.7016 218.818 15.5824 223.037 15.7925C227.32 16.0058 230.845 16.7581 233.613 18.0493C236.447 19.2797 238.656 20.9596 240.239 23.0888C241.821 25.218 242.91 27.7071 243.504 30.556C244.098 33.4049 244.328 36.5561 244.194 40.0095L243.09 68.5001L228.804 67.7886L229.841 41.0247C230.019 36.4202 229.538 33.1284 228.398 31.1493C227.258 29.1703 225.026 28.098 221.702 27.9324C220.679 27.8815 219.59 27.8913 218.435 27.9619C217.282 27.9686 216.255 28.0136 215.355 28.0969L213.846 67.0437L199.56 66.3322L201.448 17.6008Z" fill="black"/>
<path d="M281.175 5.78044C291 7.1524 298.353 9.95542 303.233 14.1895C308.121 18.3599 310.136 24.3899 309.279 32.2795C308.415 40.2327 305.127 45.619 299.416 48.4386C293.711 51.1944 285.915 51.882 276.027 50.5012L271.368 49.8506L268.962 71.9923L254.13 69.9211L261.212 4.73671C264.514 4.55188 267.985 4.58447 271.626 4.83449C275.267 5.08452 278.45 5.39984 281.175 5.78044ZM280.747 18.6065C279.669 18.456 278.588 18.3374 277.504 18.2505C276.483 18.1725 275.588 18.1122 274.821 18.0696L272.747 37.1573L277.406 37.8079C282.54 38.5248 286.482 38.3649 289.233 37.328C291.984 36.2912 293.567 33.864 293.982 30.0465C294.182 28.2013 294 26.6256 293.434 25.3194C292.931 24.022 292.084 22.9348 290.893 22.0579C289.771 21.1262 288.337 20.4092 286.59 19.9069C284.85 19.3409 282.902 18.9075 280.747 18.6065Z" fill="#BE1E2D"/>
<path d="M343.142 17.4523C352.799 19.7203 359.897 23.1928 364.436 27.87C368.986 32.4842 370.547 38.6946 369.121 46.5014C367.683 54.3711 364.025 59.4542 358.147 61.7507C352.281 63.9842 344.488 63.9597 334.768 61.6771L330.189 60.6016L326.185 82.5108L311.606 79.0868L323.392 14.5869C326.685 14.7035 330.13 15.053 333.727 15.6352C337.325 16.2174 340.463 16.8231 343.142 17.4523ZM341.781 30.2318C340.722 29.983 339.657 29.7658 338.587 29.58C337.578 29.4088 336.694 29.2669 335.935 29.1543L332.484 48.0415L337.063 49.117C342.11 50.3022 346.037 50.5023 348.845 49.7171C351.652 48.932 353.401 46.6507 354.092 42.8732C354.425 41.0475 354.359 39.456 353.892 38.0989C353.487 36.7563 352.725 35.5925 351.606 34.6073C350.56 33.5738 349.188 32.7263 347.489 32.0648C345.802 31.3403 343.9 30.7293 341.781 30.2318Z" fill="black"/>
</g>
<defs>
<clipPath id="clip0_144_1780">
<rect width="494" height="394" fill="white"/>
</clipPath>
</defs>
</svg>
